<svg width="335" height="346" viewBox="0 0 335 346" fill="none" xmlns="http://www.w3.org/2000/svg">
<path d="M173.755 0.786957C169.676 1.76401 164.086 1.76401 161.517 0.786957C160.233 0.265839 160.157 0.982361 160.157 10.9484C160.157 20.5888 159.931 22.7383 157.589 32.7044C154.869 43.9081 149.959 62.8631 147.541 71.0704L146.181 75.6301L131.676 75.8255L117.096 75.9557V63.2539V50.5521H122.762H128.428V41.7585V32.9649H124.651C121.402 32.9649 120.873 33.1603 120.873 34.2677C120.873 35.3099 120.345 35.5704 118.229 35.5704C116.114 35.5704 115.585 35.3099 115.585 34.2677C115.585 33.1603 115.056 32.9649 111.808 32.9649C108.559 32.9649 108.031 33.1603 108.031 34.2677C108.031 35.1145 107.502 35.5704 106.52 35.5704C105.084 35.5704 105.009 35.1145 105.009 25.7998V16.0291H107.653C113.319 16.0291 117.549 14.7264 121.704 11.6649C126.615 8.08237 128.503 7.36584 131.148 8.27777C134.245 9.25482 134.094 8.53833 130.77 5.67227C127.899 3.19702 127.37 3.00162 123.744 3.00162C121.553 3.00162 118.078 3.45758 115.963 3.9787C112.186 5.02087 106.973 4.76035 106.066 3.58786C104.631 1.50345 104.253 4.43466 104.253 19.286C104.253 29.708 103.951 35.5704 103.498 35.5704C103.12 35.5704 102.742 34.9842 102.742 34.2677C102.742 33.1603 102.214 32.9649 98.9651 32.9649C95.7166 32.9649 95.1878 33.1603 95.1878 34.2677C95.1878 35.3099 94.659 35.5704 92.5437 35.5704C90.4284 35.5704 89.8996 35.3099 89.8996 34.2677C89.8996 33.1603 89.3707 32.9649 86.1223 32.9649H82.345V41.7585V50.5521H87.6332H92.9214V69.442V88.3319H117.474C130.997 88.3319 142.026 88.4622 142.026 88.5924C142.026 89.4392 134.849 106.505 132.659 110.935C129.561 117.188 125.406 123.05 122.233 125.591L119.967 127.414H125.331H130.694V145.002V162.589H135.983H141.271V197.437C141.271 231.83 141.271 232.286 139.76 232.286C138.324 232.286 138.249 232.742 138.249 238.474V244.662H135.983C133.867 244.662 133.716 244.792 133.716 247.268C133.716 249.417 133.49 249.873 132.205 249.873C130.921 249.873 130.694 249.417 130.694 247.268V244.662H127.672H124.651V247.268C124.651 249.417 124.424 249.873 123.14 249.873C121.855 249.873 121.629 249.417 121.629 247.268V244.662H118.607H115.585V247.268C115.585 249.417 115.359 249.873 114.074 249.873C112.639 249.873 112.563 249.417 112.563 239.451V229.029H121.629H130.694L127.295 226.033C119.287 218.803 111.052 200.043 101.685 167.474C95.3389 145.523 94.4323 140.703 94.4323 129.629V119.598H97.5297C102.893 119.598 106.973 118.295 111.052 115.299C115.207 112.237 117.474 111.456 120.496 111.912C122.686 112.303 122.762 111.977 121.251 110.218C118.078 106.636 113.017 105.724 106.066 107.548C101.383 108.785 98.6629 108.785 95.9432 107.548L93.7524 106.57L93.4502 125.004L93.2236 143.373L89.2952 157.378C77.8122 198.414 69.2 218.803 60.1345 226.554L57.2638 229.029H66.4048H75.5459V236.781C75.5459 243.099 75.3192 244.597 74.4127 244.923C73.6572 245.118 73.355 245.965 73.4306 247.398C73.5817 248.961 73.355 249.548 72.2974 249.743C71.2397 249.938 71.0131 249.482 71.0131 247.333V244.662H67.6135H64.214V247.268C64.214 250.785 62.1742 250.915 61.7965 247.398C61.5699 245.053 61.4943 244.988 58.3214 244.792L55.1485 244.597V221.799V199.066H63.0808H71.0131V185.713V172.359H64.9694H58.9258V174.314C58.9258 175.942 58.6236 176.268 57.0371 176.268H55.1485L55.2996 152.623L55.5262 129.043L62.7031 128.717C67.538 128.522 69.3511 128.196 68.2179 127.87C67.3114 127.61 65.045 125.916 63.2319 124.158C53.4865 114.843 44.3454 91.4585 37.3197 57.7172C36.3376 52.897 35.5066 47.686 35.5066 46.1227V43.3869H38.755C44.1943 43.3869 48.8026 41.8236 53.0332 38.5016C56.7349 35.6356 57.1882 35.5053 60.5122 35.7007C64.4406 35.8961 64.5162 35.3099 60.9655 32.3787C58.3214 30.2943 53.4865 29.9034 46.914 31.3365C41.6258 32.4438 40.9459 32.3787 36.1865 30.6851C35.0533 30.2943 34.9022 31.5319 34.5245 43.1915C34.2223 53.8741 33.8445 57.5218 32.1825 64.231C23.1926 100.708 13.9004 121.226 3.92838 127.089L1.13319 128.717H8.15895H15.1092V152.492C15.1092 175.812 15.1092 176.268 13.5983 176.268C12.3895 176.268 12.0873 175.812 12.0873 174.314V172.359H6.04367H0V185.713V199.066H7.55459H15.1092V230.006V260.947H11.7096H8.31004L8.2345 268.568C8.2345 272.802 7.93231 277.687 7.55459 279.511C7.2524 281.27 7.2524 282.833 7.55459 282.963C7.85677 283.093 8.00786 283.68 7.78122 284.331C7.47904 285.373 8.15895 285.569 13.976 285.829C22.286 286.285 26.5921 288.044 30.0672 292.473L32.4847 295.6L32.4092 306.803V317.942L28.8585 324.13C24.9301 330.97 22.9659 332.533 16.1668 334.226C12.8428 335.073 10.9541 336.115 6.79913 339.698C3.85284 342.173 1.51092 344.453 1.51092 344.909C1.51092 345.43 44.7231 345.625 168.09 345.625H334.668V301.332V257.038H331.722C329.002 257.038 328.7 257.234 328.473 258.797C328.171 261.337 325.754 261.598 325.452 259.188C325.225 257.559 324.923 257.364 322.203 257.364C319.483 257.364 319.181 257.559 318.955 259.123C318.652 261.468 316.688 261.468 316.386 259.123C316.159 257.559 315.857 257.364 312.986 257.169C309.814 256.973 309.738 257.038 309.738 258.992C309.738 260.621 309.436 261.012 308.454 260.816C307.623 260.686 307.018 259.904 306.867 258.797C306.641 257.234 306.338 257.038 303.619 257.038C300.824 257.038 300.673 257.169 300.673 258.992C300.673 260.295 300.295 260.947 299.539 260.947C296.82 260.947 299.539 253.521 303.392 250.394C305.885 248.44 311.098 246.616 314.346 246.616H316.537V237.823V229.029H312.76H308.983V199.066V169.103L310.871 168.712C311.929 168.516 313.515 168.451 314.346 168.647C315.933 169.037 315.857 168.972 314.12 167.279C308.831 162.263 304.374 151.255 299.917 132.3C296.14 116.081 290.852 84.1631 289.643 69.8979C289.341 66.3805 288.812 63.3842 288.51 63.1888C288.132 62.9934 287.83 63.775 287.83 64.9475C287.83 66.0548 286.923 73.6759 285.866 81.753C279.746 128.326 271.587 159.136 263.504 166.627C261.691 168.256 261.615 168.386 263.051 168.647C263.882 168.842 265.166 168.907 265.921 168.777C267.357 168.516 267.357 169.233 267.583 185.126L267.81 201.671H265.015C262.144 201.671 262.144 201.671 262.144 204.277C262.144 207.794 260.104 207.925 259.727 204.407C259.5 202.062 259.424 201.997 256.327 201.802L253.079 201.606V204.212C253.079 206.426 252.852 206.882 251.643 206.882C249.604 206.882 249.15 201.671 250.963 199.587C252.097 198.284 252.323 196.395 252.323 184.54V171.057H247.413H242.502V153.6V136.078L245.902 132.365C247.79 130.281 249.301 128.001 249.301 127.284C249.301 126.568 247.941 124.483 246.204 122.594L243.107 119.272L248.999 118.947C254.212 118.686 254.741 118.491 253.381 117.839C249.15 115.755 243.333 104.421 239.329 90.6117C234.948 75.1741 227.393 35.2448 227.393 27.0374V24.497H231.095C236.156 24.497 240.614 22.9989 244.466 19.9374C248.017 17.1365 250.435 16.3548 253.91 16.9411L256.176 17.3319L254.59 15.3778C251.417 11.5346 246.355 10.5576 239.178 12.4466C234.494 13.6842 232.152 13.6842 229.357 12.4466C228.224 11.9255 227.091 11.4695 226.94 11.4695C226.789 11.4695 226.638 16.1594 226.638 21.8915C226.638 33.0301 225.278 44.0383 221.425 63.6447C215.608 93.2172 208.884 111.716 202.085 116.927L199.366 118.947H205.485H211.528L208.507 122.269C204.654 126.503 204.654 128.131 208.507 132.3L211.528 135.557V153.274V171.057H206.618H201.707V184.475C201.707 197.828 201.707 197.893 203.596 199.848C206.089 202.388 206.316 206.882 203.974 206.882C202.69 206.882 202.463 206.426 202.463 204.277V201.671H199.441H196.419V204.277C196.419 206.426 196.193 206.882 194.908 206.882C193.624 206.882 193.397 206.426 193.397 204.277V201.671H190.376H187.354V204.277C187.354 206.426 187.127 206.882 185.843 206.882C184.559 206.882 184.332 206.426 184.332 204.277C184.332 201.932 184.181 201.671 182.443 201.671H180.555V182.13V162.589H185.843H191.131V145.002V127.414H196.041C198.761 127.414 200.952 127.219 200.952 127.024C200.952 126.828 200.045 126.047 198.988 125.33C191.131 119.989 180.328 94.52 170.28 58.0429C166.428 43.7778 160.913 19.5466 160.913 16.6154V13.619L164.917 13.1631C171.716 12.3814 174.058 11.5998 178.213 8.53833C182.745 5.21631 185.087 4.43466 187.807 5.54199C189.469 6.19336 189.62 6.12823 188.94 5.08603C188.562 4.49979 187.203 3.1319 185.994 2.15485C183.199 -0.190125 179.346 -0.580933 173.755 0.786957Z" fill="#1C2C83"/>
<path d="M288.585 51.9852V58.7595L293.722 58.3687C299.539 57.8476 302.939 56.61 306.943 53.2228C309.436 51.2036 310.267 50.8779 313.44 50.8779H317.142L315.631 49.054C312.609 45.4063 308 44.5595 301.126 46.3182C296.366 47.5559 292.362 47.5559 290.247 46.2531L288.585 45.276V51.9852Z" fill="#1C2C83"/>
</svg>
