<svg width="154" height="151" viewBox="0 0 154 151" fill="none" xmlns="http://www.w3.org/2000/svg">
<g clip-path="url(#clip0_56874_29591)">
<path d="M144.057 7.51593C135.348 8.26413 123.954 10.4747 113.903 13.4335C103.394 16.5283 87.3836 22.6159 84.4042 24.6565C81.4576 26.697 77.2996 33.5668 75.3352 39.6885C74.2875 42.9873 72.7487 49.483 72.1921 53.054C71.5046 57.6792 70.7188 66.8957 70.6861 71.0788C70.6861 73.0513 70.5551 74.9558 70.3914 75.3299C70.1295 75.9421 70.0968 75.9081 70.0968 75.0918C70.064 74.5817 69.5402 72.5071 68.8854 70.5006C65.7751 60.8081 61.3551 53.2921 54.5452 45.9801C45.9345 36.7637 38.9281 33.6689 26.847 33.6689C21.2156 33.7029 11.2626 34.6891 1.0804 36.2535C-1.37511 36.6276 0.327378 36.8997 5.33663 36.9337C11.4918 36.9677 14.3074 37.4779 17.8761 39.2463C23.2128 41.865 25.3736 46.5923 24.2605 53.224C24.0313 54.4824 23.9003 55.5707 23.9658 55.6047C24.0313 55.6727 25.4719 55.8767 27.1744 56.0808C36.2434 57.2371 41.3509 59.8558 43.2171 64.379C43.8391 65.8754 43.9373 66.5556 43.8064 69.0722L43.6427 72.031L46 71.861C48.6847 71.6569 50.4854 72.099 51.2384 73.2213C52.8099 75.534 50.3872 85.9067 47.2768 90.3279L46.0982 91.9943L46.2619 90.5319C46.3929 89.3416 46.3274 89.1035 45.8363 89.1035C45.5416 89.1035 44.7231 89.4776 44.0683 89.9538C43.0206 90.702 42.8897 90.702 42.8897 90.1918C42.8897 89.8517 43.0534 89.4096 43.2825 89.1716C44.1993 88.2193 42.3986 88.2873 40.205 89.2736C39.7466 89.4436 39.6156 89.3416 39.6156 88.8315C39.6156 88.0493 44.1338 84.7844 47.4078 83.186C48.521 82.6418 49.4377 82.0637 49.4377 81.8936C49.4377 81.7576 48.8484 81.6216 48.1608 81.6216C47.2441 81.6216 45.6726 82.2337 42.6605 83.7981C40.3687 84.9885 38.0441 86.0767 37.553 86.1788C36.7345 86.3828 36.669 86.3488 36.9637 85.7707C37.4548 84.7844 41.8747 80.6353 43.2825 79.7851C44.7231 78.9349 44.8541 78.5608 43.6754 78.5608C41.58 78.5608 38.0114 80.8394 32.7402 85.5666C30.3502 87.7092 28.484 88.7294 26.9452 88.7635C26.0939 88.7635 25.6683 89.1035 24.2932 90.94C22.8199 92.8785 22.3943 93.1846 20.5281 93.8308C18.4655 94.545 17.0576 95.5312 16.9921 96.3475C16.8612 97.8439 17.6142 98.6261 19.1857 98.6261C19.7751 98.6261 20.6918 98.8981 21.2156 99.2042C22.1651 99.7824 22.2306 99.7484 24.195 98.6941C27.0107 97.0957 28.8768 96.9596 30.9395 98.1499C32.8384 99.2382 34.8356 99.3403 36.8 98.456C38.0768 97.9119 38.0768 97.9119 39.4847 98.9662C41.6128 100.531 42.9551 101.007 45.4107 101.007C48.7502 101.007 49.6996 101.415 51.8932 103.761C54.1195 106.108 56.9679 107.774 59.2598 108.047C60.111 108.149 62.501 108.047 64.5637 107.843C68.9836 107.366 69.4092 107.468 71.7993 109.815C72.7487 110.699 73.9601 111.72 74.5494 112.026C75.8263 112.706 78.4128 112.706 81.032 112.094C82.1124 111.822 82.9964 111.618 83.0292 111.652C83.0619 111.686 83.4875 113.08 83.9786 114.78C84.9936 118.283 86.7943 122.228 87.9074 123.419C89.5445 125.153 93.2114 124.983 96.9765 122.977C99.7594 121.514 99.9886 121.718 100.12 125.799C100.218 128.146 100.12 129.098 99.563 130.595C99.1701 131.615 98.8754 132.839 98.8754 133.315C98.8754 134.574 100.48 137.634 101.724 138.791C103.328 140.219 103.754 140.083 103.688 138.179C103.688 137.056 103.95 135.866 104.605 134.336C105.98 131.105 105.849 127.398 104.212 122.874C104.081 122.534 104.998 123.249 106.275 124.439C110.858 128.792 119.436 133.961 124.937 135.696C130.535 137.43 139.604 137.158 146.512 135.016C150.703 133.723 151.816 133.587 156.302 133.825C160.231 134.063 160.787 133.995 162.13 133.417C162.948 133.009 164.028 132.125 164.683 131.275C165.862 129.744 168.285 124.949 168.285 124.201C168.285 123.691 166.353 123.793 161.082 124.507C157.218 125.017 156.269 125.391 155.287 126.752C153.584 129.03 151.784 130.969 150.9 131.445C147.822 133.111 137.28 133.417 132.139 131.989C127.687 130.765 120.386 126.684 116.13 123.045C115.213 122.262 115.213 122.228 115.933 122.194C116.85 122.126 117.505 121.48 116.85 121.276C113.838 120.256 112.921 119.916 111.644 119.202L110.171 118.419L111.153 118.181C111.71 118.045 112.364 117.875 112.626 117.773C112.921 117.705 111.579 116.855 109.483 115.801C107.519 114.814 105.685 113.76 105.456 113.454C105.063 112.978 105.129 112.91 105.947 112.91C106.995 112.91 107.944 112.434 107.519 112.128C107.355 112.026 106.046 111.481 104.605 110.903C103.164 110.325 101.56 109.543 101.004 109.169L100.021 108.489H101.004C101.56 108.489 102.182 108.353 102.444 108.183C102.968 107.843 102.804 107.706 100.512 106.584C98.3516 105.53 97.3694 104.408 96.78 102.333C96.2235 100.395 94.521 97.8779 93.0477 96.8576C92.5566 96.5175 90.7886 95.4292 89.1188 94.477C82.8 90.804 81.916 88.1853 84.8626 82.0297C87.6455 76.2481 93.0477 72.9493 101.92 71.5549C103.721 71.2828 105.325 70.9767 105.456 70.8747C105.587 70.8067 105.063 70.0585 104.278 69.2423C101.626 66.4535 101.691 64.0729 104.572 61.0801C108.796 56.693 118.192 53.7342 127.883 53.7342C130.372 53.7342 130.895 53.3941 129.586 52.6799C127.981 51.7957 125.362 49.5171 124.74 48.4628C123.431 46.2522 124.053 44.7218 127.327 42.2051C132.467 38.2261 140.521 35.5734 150.114 34.6551C154.01 34.315 160.722 34.4511 162.653 34.9272C163.93 35.2333 163.439 34.4511 161.868 33.6689C158.43 31.9344 155.843 28.8396 155.843 26.493C155.843 22.2758 160.493 17.4466 166.713 15.236C169.594 14.2157 170.02 14.1477 174.669 14.1477C177.386 14.1137 180.202 14.2157 180.988 14.3857C181.741 14.5218 182.363 14.4878 182.363 14.3177C182.363 13.7736 178.009 11.665 174.342 10.4407C166.255 7.68597 155.058 6.59769 144.057 7.51593Z" fill="black"/>
</g>
<defs>
<clipPath id="clip0_56874_29591">
<rect width="184" height="151" fill="white"/>
</clipPath>
</defs>
</svg>
