<svg width="430" height="87" viewBox="0 0 430 87" fill="none" xmlns="http://www.w3.org/2000/svg">
<path fill-rule="evenodd" clip-rule="evenodd" d="M0 34.7508L14 30.7508C29 26.7508 57 17.7508 86 15.7508C115 13.7508 143 17.7508 172 24.7508C201 30.7508 229 39.7508 258 32.7508C287 26.7508 315 4.75084 344 0.750839C373 -3.24916 401 9.75084 416 15.7508L430 22.7508V86.7508H416C401 86.7508 373 86.7508 344 86.7508C315 86.7508 287 86.7508 258 86.7508C229 86.7508 201 86.7508 172 86.7508C143 86.7508 115 86.7508 86 86.7508C57 86.7508 29 86.7508 14 86.7508H0V34.7508Z" fill="white"/>
</svg>
