<svg width="25" height="25" viewBox="0 0 25 25" fill="none" xmlns="http://www.w3.org/2000/svg">
<g clip-path="url(#clip0_56856_29810)">
<path d="M5.99365 10.501L0.839844 18.1128C0.689453 18.3569 0.844727 18.6743 1.12939 18.7056L11.2983 19.7832L5.99365 10.501ZM1.14307 15.4019L4.81934 9.42773L1.07715 7.18262C0.946777 7.10449 0.78125 7.19824 0.78125 7.3501V15.2998C0.78125 15.4966 1.03955 15.5698 1.14307 15.4019ZM1.67236 20.6836L11.1646 24.9639C11.4233 25.0835 11.7188 24.894 11.7188 24.6094V21.4028L1.77979 20.314C1.5625 20.2896 1.47559 20.5869 1.67236 20.6836ZM5.63818 8.09668L9.54102 1.11719C9.75293 0.772461 9.36572 0.372559 9.01465 0.573242L1.65088 5.38818C1.53027 5.46729 1.53418 5.64502 1.65723 5.71924L5.63818 8.09668ZM12.5 8.59375H17.8325L13.1655 0.37207C13.0127 0.124023 12.7563 0 12.5 0C12.2437 0 11.9873 0.124023 11.8345 0.37207L7.16748 8.59375H12.5ZM23.9229 7.18262L20.1807 9.42822L23.8569 15.4023C23.96 15.5703 24.2188 15.4971 24.2188 15.2998V7.3501C24.2188 7.19824 24.0532 7.10449 23.9229 7.18262ZM19.3618 8.09668L23.3428 5.71875C23.4663 5.64453 23.4697 5.4668 23.3491 5.3877L15.9854 0.573242C15.6343 0.372559 15.2471 0.772461 15.459 1.11719L19.3618 8.09668ZM23.2202 20.314L13.2812 21.4023V24.6089C13.2812 24.894 13.5767 25.083 13.8354 24.9634L23.3276 20.6831C23.5244 20.5869 23.4375 20.2896 23.2202 20.314ZM19.0063 10.501L13.7021 19.7832L23.8711 18.7056C24.1558 18.6738 24.311 18.3569 24.1606 18.1128L19.0063 10.501ZM12.5 10.1562H7.59619L12.5 18.7378L17.4038 10.1562H12.5Z" fill="white"/>
</g>
<defs>
<clipPath id="clip0_56856_29810">
<rect width="25" height="25" fill="white"/>
</clipPath>
</defs>
</svg>
